<?xml version="1.0" standalone="no"?>
<!DOCTYPE svg PUBLIC "-//W3C//DTD SVG 20010904//EN"
 "http://www.w3.org/TR/2001/REC-SVG-20010904/DTD/svg10.dtd">
<svg version="1.0" xmlns="http://www.w3.org/2000/svg"
 width="512.000000pt" height="512.000000pt" viewBox="0 0 512.000000 512.000000"
 preserveAspectRatio="xMidYMid meet">
<metadata>
Created by potrace 1.14, written by Peter Selinger 2001-2017
</metadata>
<g transform="translate(0.000000,512.000000) scale(0.100000,-0.100000)"
fill="#000000" stroke="none">
<path d="M1608 4125 c-2 -1 -41 -5 -88 -8 -47 -4 -110 -11 -140 -17 -30 -6
-68 -13 -83 -15 -50 -9 -240 -77 -323 -115 -81 -37 -230 -131 -314 -198 -112
-89 -257 -253 -348 -394 -34 -53 -62 -99 -62 -103 0 -3 -18 -44 -40 -90 -50
-107 -113 -310 -137 -440 -19 -109 -25 -426 -10 -540 55 -403 178 -702 428
-1040 66 -89 129 -164 113 -135 -4 8 -19 31 -34 50 -65 85 -187 314 -243 455
-100 251 -150 613 -123 894 4 35 8 67 11 70 2 4 6 25 9 47 23 190 113 426 239
629 39 63 140 189 197 245 178 177 337 282 545 362 207 79 376 107 610 102
174 -4 187 -6 323 -33 283 -59 556 -188 797 -379 96 -77 228 -205 284 -277 25
-33 54 -68 63 -77 20 -20 168 -244 168 -254 0 -4 13 -28 28 -53 16 -25 48 -94
72 -153 24 -59 45 -106 47 -105 6 6 -32 128 -68 219 -86 215 -197 413 -326
580 -78 100 -283 301 -374 366 -46 34 -90 66 -97 73 -21 17 -155 99 -164 99
-4 0 -29 13 -55 28 -40 23 -199 90 -293 122 -74 26 -260 65 -361 75 -67 7
-246 14 -251 10z"/>
<path d="M1523 3438 c-249 -32 -495 -152 -671 -328 -171 -172 -291 -407 -326
-637 -13 -86 -14 -284 -1 -353 87 -496 457 -867 948 -955 115 -20 335 -13 447
14 320 79 577 273 744 563 l27 47 -33 17 c-18 9 -44 25 -57 36 l-24 18 -26
-47 c-49 -90 -94 -148 -180 -233 -199 -199 -430 -295 -706 -294 -187 0 -314
30 -468 111 -103 54 -145 84 -231 164 -240 224 -356 554 -309 878 42 291 203
545 448 705 115 76 207 114 370 153 50 12 261 14 333 4 327 -48 616 -260 762
-559 37 -75 73 -182 85 -251 8 -48 12 -52 41 -41 14 6 42 10 63 10 l38 0 -8
48 c-12 64 -46 175 -76 247 -21 52 -106 201 -122 215 -4 3 -19 22 -35 44 -135
181 -394 346 -628 400 -129 29 -287 39 -405 24z"/>
<path d="M1094 2730 c-12 -5 -26 -15 -30 -22 -5 -7 -9 -190 -10 -407 0 -388 0
-395 21 -419 l21 -25 465 1 c255 0 484 3 509 7 146 21 220 64 255 147 17 41
20 133 6 170 -13 34 -69 86 -108 100 -38 14 -42 24 -12 33 28 9 77 59 90 92
12 33 10 128 -5 163 -19 47 -57 90 -99 112 -97 49 -113 50 -612 53 -259 2
-480 -1 -491 -5z m941 -174 c38 -16 48 -40 43 -102 -3 -34 -8 -41 -43 -58 -37
-19 -64 -20 -395 -21 l-356 -1 0 98 0 98 358 0 c289 0 365 -3 393 -14z m43
-369 c17 -10 32 -23 33 -30 7 -83 1 -103 -39 -119 -18 -7 -158 -11 -409 -12
l-382 -2 -3 89 c-2 49 -1 91 2 94 2 2 176 3 385 1 341 -3 383 -5 413 -21z"/>
<path d="M2733 2340 c-55 -13 -97 -44 -109 -80 -7 -21 -11 -90 -10 -167 2
-124 3 -134 25 -157 44 -46 89 -54 339 -55 253 -2 274 2 266 46 -3 15 -8 30
-10 33 -3 3 -111 7 -239 10 -152 3 -238 9 -245 16 -6 6 -12 26 -13 45 l-2 34
245 3 c203 2 247 5 256 17 13 18 6 64 -10 66 -6 1 -116 3 -245 3 -228 2 -234
2 -242 23 -11 31 -1 59 26 71 13 6 65 12 115 13 111 2 137 18 110 70 -10 17
-22 19 -118 18 -59 -1 -121 -4 -139 -9z"/>
<path d="M3373 2338 c-13 -16 -15 -415 -2 -440 11 -20 45 -27 82 -15 29 10 29
11 29 119 l1 57 61 -23 c33 -13 135 -54 226 -91 91 -36 175 -67 188 -67 13 0
29 8 37 18 34 44 17 59 -126 109 l-124 44 55 1 c191 5 250 40 250 150 0 67
-19 97 -77 126 -34 17 -68 19 -314 22 -220 3 -277 1 -286 -10z m514 -83 c34
-6 43 -20 43 -66 0 -22 -6 -32 -24 -39 -14 -5 -114 -8 -222 -7 l-198 2 -2 57
-2 57 41 3 c66 5 328 0 364 -7z"/>
<path d="M4259 2334 c-48 -14 -98 -56 -100 -83 -9 -100 -5 -260 8 -288 28 -61
116 -83 332 -83 203 1 286 22 314 83 21 44 18 281 -4 315 -15 25 -52 45 -113
61 -59 15 -382 12 -437 -5z m398 -79 c18 -3 37 -14 41 -23 7 -13 10 -205 3
-234 -8 -39 -415 -39 -422 0 -1 4 -2 56 -3 116 -2 115 4 131 47 141 53 12 272
12 334 0z"/>
<path d="M4998 1958 c-60 -20 -17 -90 45 -74 29 7 41 30 27 55 -12 24 -38 30
-72 19z"/>
</g>
</svg>
